<svg width="20" height="8" viewBox="0 0 20 8" fill="none" xmlns="http://www.w3.org/2000/svg">
<g id="Group">
<g id="Group_2">
<g id="Group_3">
<g id="Group_4">
<path id="Vector" d="M19.5385 4.4077H0.461541C0.234618 4.4077 0.0512848 4.22437 0.0512848 3.99745C0.0512848 3.77052 0.234618 3.58719 0.461541 3.58719H18.5474L16.0577 1.09745C15.8974 0.937189 15.8974 0.676933 16.0577 0.516677C16.218 0.35642 16.4782 0.35642 16.6385 0.516677L19.8295 3.7077C19.9474 3.82565 19.9821 4.00129 19.918 4.15514C19.8538 4.3077 19.7038 4.4077 19.5385 4.4077Z" fill="#333333"/>
</g>
<g id="Group_5">
<path id="Vector_2" d="M16.3436 7.60259C16.2385 7.60259 16.1333 7.56285 16.0538 7.48208C15.8936 7.32182 15.8936 7.06156 16.0538 6.90131L19.2487 3.70643C19.409 3.54618 19.6692 3.54618 19.8295 3.70643C19.9897 3.86669 19.9897 4.12695 19.8295 4.2872L16.6346 7.48208C16.5538 7.56285 16.4487 7.60259 16.3436 7.60259Z" fill="#333333"/>
</g>
</g>
</g>
</g>
</svg>
